<svg xmlns="http://www.w3.org/2000/svg" version="1.1" xmlns:xlink="http://www.w3.org/1999/xlink" xmlns:svgjs="http://svgjs.com/svgjs" width="1000" height="1000"><rect width="1000" height="1000" rx="200" ry="200" fill="#1b2a36"></rect><g transform="matrix(2.8,0,0,2.8,150,198.99997253417973)"><svg xmlns="http://www.w3.org/2000/svg" version="1.1" xmlns:xlink="http://www.w3.org/1999/xlink" xmlns:svgjs="http://svgjs.com/svgjs" width="250" height="215"><svg xmlns:svg="http://www.w3.org/2000/svg" xmlns="http://www.w3.org/2000/svg" version="1.0" width="250" height="215" id="svg3927">
  <defs id="defs3929"></defs>
  <g transform="translate(-345.86832,-385.50151)" id="layer1">
    <g transform="translate(226.32743,69.050165)" id="g4042">
      <path d="M 230.625,319.84375 L 124.09375,504.34375 L 137.9375,528.28125 L 351.5625,528.28125 L 365.40625,504.34375 L 258.875,319.84375 L 230.625,319.84375 z M 244.75,387.4375 L 299.875,482.9375 L 189.625,482.9375 L 244.75,387.4375 z " style="fill:#e7eef2;fill-opacity:1;stroke:#000000;stroke-width:2;stroke-linecap:round;stroke-linejoin:miter;stroke-miterlimit:4;stroke-dasharray:none;stroke-dashoffset:0.5944;stroke-opacity:1" id="path3953"></path>
      <path d="M 190.41521,482.92869 L 164.50783,482.92869" style="fill:none;fill-rule:evenodd;stroke:#000000;stroke-width:2;stroke-linecap:butt;stroke-linejoin:miter;stroke-miterlimit:4;stroke-dasharray:none;stroke-opacity:1" id="path3955"></path>
      <path d="M 299.50186,482.25611 L 312.45555,504.69256" style="fill:none;fill-rule:evenodd;stroke:#000000;stroke-width:2;stroke-linecap:butt;stroke-linejoin:miter;stroke-miterlimit:4;stroke-dasharray:none;stroke-opacity:1" id="path3975"></path>
      <path d="M 244.37607,388.12059 L 257.32976,365.68414" style="fill:none;fill-rule:evenodd;stroke:#000000;stroke-width:2;stroke-linecap:butt;stroke-linejoin:miter;stroke-miterlimit:4;stroke-dasharray:none;stroke-opacity:1" id="path3983"></path>
      <path d="M 364.35448,399.76606 L 404.7502,469.73351 M 317.80216,458.09397 L 357.91614,388.61453 M 392.10414,469.73351 L 311.08208,469.7335" transform="matrix(1.9963116,0,0,1.9963116,-469.74774,-432.27759)" style="fill:none;fill-opacity:1;stroke:#000000;stroke-width:1.00184762;stroke-linecap:round;stroke-linejoin:miter;stroke-miterlimit:4;stroke-dashoffset:0.5944;stroke-opacity:1" id="path3951"></path>
      <path d="M 151.83574,505.45686 L 123.67553,505.45686" style="fill:none;fill-rule:evenodd;stroke:#000000;stroke-width:2;stroke-linecap:butt;stroke-linejoin:miter;stroke-miterlimit:4;stroke-dasharray:none;stroke-opacity:1" id="path3989"></path>
      <path d="M 244.48103,344.0089 L 258.56113,319.62144" style="fill:none;fill-rule:evenodd;stroke:#000000;stroke-width:2;stroke-linecap:butt;stroke-linejoin:miter;stroke-miterlimit:4;stroke-dasharray:none;stroke-opacity:1" id="path3999"></path>
      <path d="M 337.93373,504.92337 L 351.4128,528.2698" style="fill:none;fill-rule:evenodd;stroke:#000000;stroke-width:2;stroke-linecap:butt;stroke-linejoin:miter;stroke-miterlimit:4;stroke-dasharray:none;stroke-opacity:1" id="path4008"></path>
    </g>
  </g>
</svg></svg></g></svg>